<?xml version="1.0" encoding="UTF-8" standalone="no"?>
<!-- Created with Inkscape (http://www.inkscape.org/) -->

<svg
   xmlns:dc="http://purl.org/dc/elements/1.1/"
   xmlns:cc="http://creativecommons.org/ns#"
   xmlns:rdf="http://www.w3.org/1999/02/22-rdf-syntax-ns#"
   xmlns:svg="http://www.w3.org/2000/svg"
   xmlns="http://www.w3.org/2000/svg"
   xmlns:sodipodi="http://sodipodi.sourceforge.net/DTD/sodipodi-0.dtd"
   xmlns:inkscape="http://www.inkscape.org/namespaces/inkscape"
   width="2160"
   height="1620"
   id="svg3914"
   version="1.1"
   inkscape:version="0.48.2 r9819"
   sodipodi:docname="New document 3">
  <defs
     id="defs3916" />
  <sodipodi:namedview
     id="base"
     pagecolor="#ffffff"
     bordercolor="#666666"
     borderopacity="1.0"
     inkscape:pageopacity="0.0"
     inkscape:pageshadow="2"
     inkscape:zoom="0.49497475"
     inkscape:cx="-464.52945"
     inkscape:cy="1393.6208"
     inkscape:document-units="mm"
     inkscape:current-layer="layer1"
     showgrid="true"
     units="mm"
     inkscape:window-width="1920"
     inkscape:window-height="996"
     inkscape:window-x="-8"
     inkscape:window-y="-8"
     inkscape:window-maximized="1">
    <inkscape:grid
       type="xygrid"
       id="grid3922"
       empspacing="4"
       visible="true"
       enabled="true"
       snapvisiblegridlinesonly="true"
       units="mm"
       spacingx="0.5mm"
       spacingy="0.5mm" />
  </sodipodi:namedview>
  <metadata
     id="metadata3919">
    <rdf:RDF>
      <cc:Work
         rdf:about="">
        <dc:format>image/svg+xml</dc:format>
        <dc:type
           rdf:resource="http://purl.org/dc/dcmitype/StillImage" />
        <dc:title></dc:title>
      </cc:Work>
    </rdf:RDF>
  </metadata>
  <g
     inkscape:label="Layer 1"
     inkscape:groupmode="layer"
     id="layer1"
     transform="translate(0,567.64025)">
    <g
       id="g3991"
       transform="translate(116.92913,74.223096)">
      <g
         transform="translate(-104.88189,-230.6601)"
         id="g3793">
        <rect
           transform="matrix(0,1,-1,0,0,0)"
           y="-820.97504"
           x="-113.2019"
           height="393.11148"
           width="230.11935"
           id="rect3791"
           style="fill:#ff0000;fill-opacity:1;stroke:none" />
        <rect
           style="fill:none;stroke:#000000;stroke-width:0.17716534;stroke-miterlimit:4;stroke-opacity:1;stroke-dasharray:none"
           id="rect3789"
           width="202.85432"
           height="365.84647"
           x="-99.569382"
           y="-807.34253"
           transform="matrix(0,1,-1,0,0,0)" />
      </g>
      <g
         id="g3973">
        <rect
           style="fill:#ff0000;fill-opacity:1;stroke:none"
           id="rect2983"
           width="226.77165"
           height="438.66141"
           x="39.419308"
           y="-552.40405"
           rx="14.173228"
           ry="14.173228" />
        <path
           sodipodi:type="arc"
           style="fill:none;stroke:#000000;stroke-width:0.70866138;stroke-miterlimit:4;stroke-opacity:1;stroke-dasharray:none"
           id="path3755"
           sodipodi:cx="-226.77165"
           sodipodi:cy="457.79529"
           sodipodi:rx="28.346457"
           sodipodi:ry="28.346457"
           d="m -198.4252,457.79529 c 0,15.65531 -12.69114,28.34645 -28.34645,28.34645 -15.65532,0 -28.34646,-12.69114 -28.34646,-28.34645 0,-15.65532 12.69114,-28.34646 28.34646,-28.34646 15.65531,0 28.34645,12.69114 28.34645,28.34646 z"
           transform="matrix(0.25,0,0,0.25,119.14371,-627.87647)" />
        <path
           transform="matrix(0.25,0,0,0.25,299.85237,-627.87647)"
           d="m -198.4252,457.79529 c 0,15.65531 -12.69114,28.34645 -28.34645,28.34645 -15.65532,0 -28.34646,-12.69114 -28.34646,-28.34645 0,-15.65532 12.69114,-28.34646 28.34646,-28.34646 15.65531,0 28.34645,12.69114 28.34645,28.34646 z"
           sodipodi:ry="28.346457"
           sodipodi:rx="28.346457"
           sodipodi:cy="457.79529"
           sodipodi:cx="-226.77165"
           id="path3757"
           style="fill:none;stroke:#000000;stroke-width:0.70866138;stroke-miterlimit:4;stroke-opacity:1;stroke-dasharray:none"
           sodipodi:type="arc" />
        <path
           transform="matrix(0.25,0,0,0.25,119.14371,-267.16782)"
           d="m -198.4252,457.79529 c 0,15.65531 -12.69114,28.34645 -28.34645,28.34645 -15.65532,0 -28.34646,-12.69114 -28.34646,-28.34645 0,-15.65532 12.69114,-28.34646 28.34646,-28.34646 15.65531,0 28.34645,12.69114 28.34645,28.34646 z"
           sodipodi:ry="28.346457"
           sodipodi:rx="28.346457"
           sodipodi:cy="457.79529"
           sodipodi:cx="-226.77165"
           id="path3759"
           style="fill:none;stroke:#000000;stroke-width:0.70866138;stroke-miterlimit:4;stroke-opacity:1;stroke-dasharray:none"
           sodipodi:type="arc" />
        <path
           sodipodi:type="arc"
           style="fill:none;stroke:#000000;stroke-width:0.70866138;stroke-miterlimit:4;stroke-opacity:1;stroke-dasharray:none"
           id="path3761"
           sodipodi:cx="-226.77165"
           sodipodi:cy="457.79529"
           sodipodi:rx="28.346457"
           sodipodi:ry="28.346457"
           d="m -198.4252,457.79529 c 0,15.65531 -12.69114,28.34645 -28.34645,28.34645 -15.65532,0 -28.34646,-12.69114 -28.34646,-28.34645 0,-15.65532 12.69114,-28.34646 28.34646,-28.34646 15.65531,0 28.34645,12.69114 28.34645,28.34646 z"
           transform="matrix(0.25,0,0,0.25,299.85237,-267.16782)" />
        <rect
           style="fill:none;stroke:#000000;stroke-width:0.18070866;stroke-miterlimit:4;stroke-opacity:1;stroke-dasharray:none"
           id="rect3814"
           width="155.90498"
           height="431.40311"
           x="74.852646"
           y="-548.7749" />
      </g>
    </g>
    <g
       id="g3969"
       transform="translate(-17.716516,75.9948)">
      <path
         transform="matrix(1.2482143,0,0,1.2482143,-128.40692,-596.83963)"
         d="m 566.92912,117.63779 c 0,27.3968 -22.2095,49.6063 -49.60631,49.6063 -27.3968,0 -49.6063,-22.2095 -49.6063,-49.6063 0,-27.396806 22.2095,-49.606303 49.6063,-49.606303 27.39681,0 49.60631,22.209497 49.60631,49.606303 z"
         sodipodi:ry="49.6063"
         sodipodi:rx="49.6063"
         sodipodi:cy="117.63779"
         sodipodi:cx="517.32281"
         id="path3959"
         style="fill:#ff0000;fill-opacity:1;stroke:none"
         sodipodi:type="arc" />
      <path
         sodipodi:type="arc"
         style="fill:none;stroke:#000000;stroke-width:0.17716534;stroke-linecap:round;stroke-linejoin:round;stroke-miterlimit:4;stroke-opacity:1;stroke-dasharray:none;stroke-dashoffset:5.38582692"
         id="path3957"
         sodipodi:cx="517.32281"
         sodipodi:cy="117.63779"
         sodipodi:rx="49.6063"
         sodipodi:ry="49.6063"
         d="m 566.92912,117.63779 c 0,27.3968 -22.2095,49.6063 -49.60631,49.6063 -27.3968,0 -49.6063,-22.2095 -49.6063,-49.6063 0,-27.396806 22.2095,-49.606303 49.6063,-49.606303 27.39681,0 49.60631,22.209497 49.60631,49.606303 z"
         transform="translate(0,-567.64025)" />
    </g>
    <text
       xml:space="preserve"
       style="font-size:32px;font-style:normal;font-variant:normal;font-weight:normal;font-stretch:normal;text-align:end;line-height:125%;letter-spacing:0px;word-spacing:0px;text-anchor:end;fill:#000000;fill-opacity:1;stroke:none;font-family:Droid Sans;-inkscape-font-specification:Droid Sans"
       x="584.64563"
       y="-382.56238"
       id="text3983"
       sodipodi:linespacing="125%"><tspan
         sodipodi:role="line"
         id="tspan3985"
         x="584.64563"
         y="-382.56238"
         style="text-align:start;text-anchor:start">PRESS TO RECEIVE</tspan><tspan
         sodipodi:role="line"
         x="584.64563"
         y="-342.56238"
         id="tspan3987"
         style="text-align:start;text-anchor:start">ABUSIVE LANGUAGE</tspan></text>
    <rect
       style="fill:none;stroke:#000000;stroke-width:1;stroke-opacity:1"
       id="rect3989"
       width="850.39368"
       height="530.49603"
       x="69.488518"
       y="-524.09827" />
  </g>
</svg>
